<svg viewBox="0 0 676 109" xmlns="http://www.w3.org/2000/svg" width="1000px" height="161.24260355029585px"><g fill="#554C44"><path d="m236.61 27.71h-7.4c-2.2146-.01315-4.3437.85385-5.919 2.4104s-2.4677 3.6752-2.481 5.8897v17h32.39v-9.88c-4.69-5.02-11.49-9.73-16.59-15.42z"></path><path d="m284.71 27.711h-7.35c-5.11 5.7001-11.92 10.41-16.61 15.44v9.83h32.34v-17c-.038509-4.5943-3.7856-8.2922-8.38-8.2701z"></path><path d="m278.3 9.8606c-.62415-5.6347-5.4009-9.8893-11.07-9.86-4.42.097707-8.3978 2.7057-10.25 6.72v.05-.05c-1.8559-4.0111-5.8315-6.6176-10.25-6.72-5.692-.060263-10.504 4.2023-11.13 9.86 0 .37-.05.74-.05 1.12 0 13.34 16.58 19.65 21.38 28.54 4.82-8.86 21.37-15.2 21.37-28.54z"></path><path d="m220.81 60.451v17.07c.013221 2.2146.90566 4.3332 2.481 5.8897 1.5753 1.5566 3.7045 2.4236 5.919 2.4104h24v-25.37h-32.4z"></path><path d="m260.75 60.451v25.37h24c2.2119.010538 4.3375-.85796 5.909-2.4145 1.5716-1.5566 2.4604-3.6737 2.471-5.8856v-17.07h-32.38z"></path><path d="m346.71 40.311-5.47 8.41c-4.1042-2.2789-8.7156-3.4894-13.41-3.52-3.32 0-6.06 1.07-6.06 3.42 0 2.84 3.52 4.21 8.51 5.77 8.51 2.64 17.41 6 17.41 16 0 9.78-7.92 15.75-21.32 15.75-7.93 0-15.36-1.57-21-6.07l4-9.49c5.19 3.62 11.84 4.8 16.34 4.8s7.24-1.18 7.24-3.92-4.3-4.1-9.49-5.57c-7.46-2.23-16.46-5.73-16.46-15.51s7.82-15.72 20.3-15.72c6.8903-.10688 13.653 1.8618 19.41 5.65z"></path><path d="m403.15 41.661v42.37c-2.5371 1.2353-5.3008 1.9365-8.12 2.06-3.91 0-6.26-3.23-6.55-7.83-3.3025 5.0671-9.0152 8.0372-15.06 7.83-11 0-17.32-6.85-17.32-18.59v-30.84c2.5419-1.2135 5.3053-1.8941 8.12-2 4.5 0 7 2.94 7 7.05v23.05c0 5.77 2.45 9.3 7.05 9.3 6.06 0 9.68-3.53 9.68-13.7v-23.7c2.5542-1.2188 5.3317-1.8995 8.16-2 4.5 0 7.04 2.91 7.04 7z"></path><path d="m450.4 36.291-4.4 13.37c-1.846-1.1647-3.9873-1.7756-6.17-1.76-6.26 0-10.17 4.2-10.17 16.43v20.78h-15.16v-48.45c2.5416-1.2146 5.3051-1.8952 8.12-2 4.1 0 6.55 3.52 6.55 8.61 3.62-6.36 8.61-8.61 13.7-8.61 2.5937.034724 5.1541.58897 7.53 1.63z"></path><path d="m505.76 58.791c0 17.22-10.17 27.3-27.29 27.3-1.86 0-4.5-.1-7.34-.2v21.77h-15.16v-71c2.5419-1.2135 5.3053-1.8941 8.12-2 3.91 0 6.26 3.13 6.55 7.83 4.21-5.87 10.18-7.83 16.14-7.83 11.45 0 18.98 9 18.98 24.13zm-15.36 0c0-7.63-3.22-12.22-9.19-12.22s-10.08 3.52-10.08 13.89v14.28c2.25.1 4.21.1 5.87.1 8.3 0 13.4-5.87 13.4-16.05z"></path><path d="m551.05 36.291-4.4 13.37c-1.8424-1.1645-3.9805-1.7753-6.16-1.76-6.27 0-10.18 4.2-10.18 16.43v20.78h-15.16v-48.45c2.5511-1.2175 5.3251-1.8982 8.15-2 4.11 0 6.55 3.52 6.55 8.61 3.62-6.36 8.61-8.61 13.7-8.61 2.5836.038717 5.1334.59288 7.5 1.63z"></path><path d="m555.64 19.861c0-5.09 3.23-7.92 8.42-7.92s8.41 2.83 8.41 7.92-3.23 8.12-8.41 8.12-8.42-2.93-8.42-8.12zm1 65.25h15.17v-49.45h-15.19z"></path><path d="m621.67 40.311-5.47 8.41c-4.1042-2.2789-8.7156-3.4894-13.41-3.52-3.32 0-6.06 1.07-6.06 3.42 0 2.84 3.52 4.21 8.51 5.77 8.51 2.64 17.41 6 17.41 16 0 9.78-7.92 15.75-21.32 15.75-7.93 0-15.36-1.57-21-6.07l4-9.49c5.19 3.62 11.84 4.8 16.34 4.8s7.24-1.18 7.24-3.92-4.3-4.1-9.49-5.57c-7.43-2.15-16.43-5.68-16.43-15.46s7.79-15.77 20.31-15.77c6.8768-.098832 13.625 1.8695 19.37 5.65z"></path><path d="m669.02 70.831 6 9.49c-6.289 3.9267-13.588 5.932-21 5.77-15.55 0-24.75-9.1-24.75-24.56 0-16.82 9.69-26.9 26.22-26.9 12.42 0 19.66 6.26 19.66 16.53 0 9.88-9.1 15.75-24.26 15.75-2.15 0-4.3-.19-6.45-.39 1.07 5.19 4.3 8.22 10.66 8.22 4.9251.10639 9.7706-1.2547 13.92-3.91zm-25-12.82c2.25.2 4.5.3 6.56.3 6.26 0 9.78-2.35 9.78-6.46 0-3.33-2.35-5.48-6.46-5.48-5.43 0-9.05 4.29-9.83 11.64z"></path><path d="m50.94 36.881-19.18 53.51c-3.62 10.17-10.76 17.27-17.8 18.19l-6.16-9.68c4.3-.68 9.68-5.18 11.64-11.45l1-3c-2.44-.88-4.1-2.74-5.18-5.57l-15.26-42c2.6941-1.3712 5.6583-2.1294 8.68-2.22 3.71 0 7.33 1.47 9.09 7l5.09 16.14 3.62 15.46 3.62-15.45 6.55-23.15 14.29 2.22z"></path><path d="m53.87 60.361c0-16.14 9.68-25.7 26.31-25.7s26.41 9.59 26.41 25.73-9.78 25.73-26.41 25.73-26.31-9.62-26.31-25.76zm37.36 0c0-8.61-4.1-13.8-11-13.8s-10.93 5.19-10.93 13.8 4.11 13.69 11 13.69 10.93-5.08 10.93-13.69z"></path><path d="m162.44 41.661v42.37c-2.5449 1.2334-5.3148 1.9344-8.14 2.06-3.91 0-6.26-3.23-6.55-7.83-3.3025 5.0671-9.0152 8.0372-15.06 7.83-11 0-17.32-6.85-17.32-18.59v-30.84c2.5496-1.2119 5.3191-1.8923 8.14-2 4.5 0 7 2.93 7 7v23.1c0 5.77 2.45 9.29 7.05 9.29 6.06 0 9.68-3.52 9.68-13.69v-23.7c2.5557-1.2145 5.3323-1.895 8.16-2 4.5 0 7.04 2.9 7.04 7z"></path><path d="m209.69 36.291-4.39 13.37c-1.8451-1.1678-3.9864-1.782-6.17-1.77-6.26 0-10.17 4.21-10.17 16.44v20.78h-15.17v-48.45c2.5434-1.2093 5.3059-1.8897 8.12-2 4.11 0 6.55 3.52 6.55 8.61 3.62-6.36 8.61-8.61 13.7-8.61 2.5943.029813 5.1557.58427 7.53 1.63z"></path></g></svg>
