<svg xmlns="http://www.w3.org/2000/svg" width="47.639" height="27.709" viewBox="0 0 47.639 27.709">
  <g id="Group_630" data-name="Group 630" transform="translate(-41 -188)">
    <g id="truck" transform="translate(40.764 172.015)">
      <path id="Path_1513" data-name="Path 1513" d="M47.875,37.375c0-.865-.741-.865-.988-1.606a6.23,6.23,0,0,1,.124-2.594,16.742,16.742,0,0,0,.247-2.471c0-1.853-.618-1.359-1.729-1.853a20.6,20.6,0,0,0-2.471-.988c-.618-.124-2.1-.124-2.471-.618-.618-.618-.865-1.977-1.359-2.841a19.251,19.251,0,0,0-1.977-2.471c-3.212-3.212-9.141-3.088-13.218-2.1-1.729.371-2.1,1.359-2.224,3.088a25.759,25.759,0,0,0,0,3.088c0,.371.247,1.482,0,1.729-.247.371-1.482.124-1.853.124l.124-6.671a.266.266,0,0,0-.247-.247H16.992c1.359-.618,4.2-2.1,2.471-4.077-1.606-1.853-3.953-.494-4.694,1.359-.124-2.347-3.459-1.977-4.941-.988-1.977,1.482-.618,3.459,1.359,3.953a14.888,14.888,0,0,0-2.347,0c-.618,0-.741.124-.865.494A47.3,47.3,0,0,0,7.6,27.492a.844.844,0,0,1-.865.865c-1.606.124-3.83.247-4.694,1.853-.865,1.853-.494,3.706-.494,5.312a4.634,4.634,0,0,1-.124,1.235C1.18,37,.562,37,.439,37.375a1.7,1.7,0,0,0,.247,1.977,5.849,5.849,0,0,0,2.1.124c.988,0,1.853.124,2.841.124a9.812,9.812,0,0,1,2.718.124c.741.371.494,1.235.865,1.977a3.408,3.408,0,0,0,3.83,1.729,3.6,3.6,0,0,0,2.347-3.706c0-.988-.371-.494.865-.741a9.536,9.536,0,0,1,1.853-.247H29.592c.371,0,2.347-.247,2.594.247.247.247,0,1.729.247,2.224a3.711,3.711,0,0,0,7.165-.618c0-.371.124-.741.124-1.112,0-.865-.247-.865.741-1.112a10.851,10.851,0,0,1,3.459.124c.988,0,1.977.247,2.841.247.988,0,1.112-.371,1.112-1.359h0ZM45.9,30.58c.371-1.235.988,1.235.494,1.606C45.775,32.68,45.775,30.827,45.9,30.58ZM19.092,28.11a4.667,4.667,0,0,1-1.853,0,13.426,13.426,0,0,0-2.224.124c.124-.865.124-1.606.247-2.471a14.525,14.525,0,0,1,.371-3.335c.247-.618,0-.494.741-.494a23.741,23.741,0,0,1,2.965,0c-.124,2.1-.247,4.2-.247,6.177Zm-5.806-6.918c-.618-.741-1.359-.988-1.977-1.606-.618-.494-.618-.741.371-.988,1.606-.124,1.606,1.482,1.606,2.594Zm.618.988a2.72,2.72,0,0,0,.988-.124c-.124,1.112-.247,2.347-.371,3.459-.124.618,0,1.359-.124,2.1s.124.741-.865.741C13.657,26.257,13.78,24.28,13.9,22.18Zm1.359-3.335c.371-1.482,2.471-3.088,3.706-1.235,1.112,1.606-2.1,2.841-3.088,3.212a12.239,12.239,0,0,0,2.1-1.359,1.015,1.015,0,0,0-.865-1.729c-.865,0-1.482.865-1.977,1.482,0-.124.124-.247.124-.371.247-.865,0,.124,0,0Zm.618.371c.247-.247,1.235-1.482,1.606-.741.247.371-.124.371-.371.618A15.732,15.732,0,0,1,14.768,20.7l1.112-1.482c.247-.247-.371.494,0,0Zm-6.424.371c-.618-1.729,2.224-2.224,3.335-2.224,1.729,0,1.606,2.224.988,3.582,0-1.606-.741-3.582-2.841-2.718-2.224.865.247,2.1.988,2.718-.741-.247-2.1-.371-2.471-1.359C9.333,19.092,9.7,20.2,9.456,19.586ZM13.039,22.3c.494.865-.124,3.582-.247,4.818s.371,1.359-1.112,1.359a26.868,26.868,0,0,0-3.212.124c0-.865.124-1.729.124-2.471,0-.865-.247-2.594.247-3.459.247-.741.247-.494,1.235-.494a23.8,23.8,0,0,1,2.965.124ZM9.333,29.221c2.1-.124,4.2-.124,6.177-.247,1.853-.124,3.706-.124,5.559-.247,1.482-.124,1.606-.124,1.606-1.606,0-.988-.124-1.977-.124-3.088,0-1.977.371-3.088,2.347-3.459a21.647,21.647,0,0,1,6.3-.371,10.282,10.282,0,0,1,8.03,5.559c.371.618.494,1.729.988,2.224.371.494.741.247,1.359.247.988,0,3.459.618,3.83,1.606.247.741-.247,1.606.247,2.471.371.618.618.618.618,1.359.124.494,0,1.606-.494,1.853-.494.371-2.347.247-2.965.247a10.728,10.728,0,0,1-2.841-.124c-.618-.247-1.235-.865-1.853-1.112a5.83,5.83,0,0,0-5.806.865,2.959,2.959,0,0,1-2.347.618H27.245c-2.1,0-4.2.124-6.424.124H17.857c-1.359,0-1.606-.371-2.841-.865A7.167,7.167,0,0,0,9.7,35.4c-.988.618-1.729,1.606-2.347,1.853-.371.124-2.594.124-2.841-.247-.371-.494,0-2.718,0-3.335,0-1.359-.124-3.706.124-3.953s3.212-.371,4.694-.494Zm-7.165,6.3c0-1.359-.247-3.335.494-4.571,1.112-1.729.988.371.988,1.235,0,1.235.247,2.841.124,4.077A1.324,1.324,0,0,1,3.527,37H2.415c-.371-.371-.247-1.112-.247-1.482Zm12.353,5.065c-.371,1.235-1.482,2.471-2.841,2.1A3.082,3.082,0,0,1,9.456,39.6c.247-3.212,6.177-2.594,5.065.988-.124.247.124-.618,0,0Zm23.348,1.606c-2.965,2.841-7.165-2.224-3.706-4.571a2.942,2.942,0,0,1,3.706,4.571C37.5,42.563,38.734,41.451,37.869,42.192Zm9.265-4.324c0,.494-3.582-.124-3.953-.124-1.112-.124-2.224.124-3.335,0a2.907,2.907,0,0,1-.988-.247c-.494-.247-.741-.618-1.235-.865a4.626,4.626,0,0,0-4.2.494c-.741.494-.618.741-1.482.865a18.159,18.159,0,0,1-2.594,0c-3.706.124-7.288,0-10.994-.124H16c-.124,0-.494.247-.741.124-.618-.124-.371-.247-.741-.618a3.766,3.766,0,0,0-4.2-.618,6.853,6.853,0,0,0-.988.741c-.247.247-.494.988-.741,1.112-.494.371-1.359.124-1.977.124a28.234,28.234,0,0,1-3.088-.247c-.371,0-2.718.124-2.841-.247-.494-1.482,3.088-.618,3.212-.618.865,0,1.729.124,2.718.124.247,0,1.235.124,1.359,0,.371.247.618-.494.741-.741,1.235-1.235,3.335-1.359,4.941-1.112.865.124,1.235.618,1.977.988A6.629,6.629,0,0,0,18.351,37H28.48c.741,0,2.718.371,3.335.124.494-.247.741-.988,1.235-1.359a5.767,5.767,0,0,1,5.312.124c.371.247.618.618.988.865s.371.124.865.124H43.3c1.359-.124,3.953-.741,3.83.988Z" fill="#4a4a4a"/>
      <path id="Path_1514" data-name="Path 1514" d="M22.476,27.113c.618,2.471,5.188,1.359,7.041,1.482,1.112,0,2.965.371,3.335-1.112.247-.988-.618-2.594-1.235-3.335a7.145,7.145,0,0,0-6.547-2.841c-1.112.124-2.224.371-2.718,1.482-.494.988-.247,3.212.124,4.324Zm.494-3.706c.124-2.718,4.941-1.359,6.3-.618,1.112.618,3.335,2.841,2.841,4.324-.247.988-1.359.618-2.224.618H25.317c-.865,0-1.853.124-2.224-.741C22.6,26.248,22.847,24.4,22.97,23.407Z" transform="translate(5.139 1.244)" fill="#4a4a4a"/>
      <path id="Path_1515" data-name="Path 1515" d="M29.611,34.824c-.865-.618-1.729,1.235-.494,1.482C30.106,36.43,30.353,35.318,29.611,34.824Z" transform="translate(6.652 4.404)" fill="#4a4a4a"/>
      <path id="Path_1516" data-name="Path 1516" d="M9.565,34.927c-.618.494-.371,1.606.494,1.235C11.048,35.915,10.307,34.309,9.565,34.927Z" transform="translate(2.115 4.424)" fill="#4a4a4a"/>
    </g>
  </g>
</svg>
