<svg xmlns="http://www.w3.org/2000/svg" width="35" height="30" viewBox="0 0 35 30">
  <g id="Group_633" data-name="Group 633" transform="translate(-51 -411)">
    <g id="Group_12_Copy" data-name="Group 12 Copy" transform="translate(51 411)">
      <g id="Rectangle" fill="none" stroke="#4a4a4a" stroke-miterlimit="10" stroke-width="1">
        <rect width="35" height="30" stroke="none"/>
        <rect x="0.5" y="0.5" width="34" height="29" fill="none"/>
      </g>
    </g>
    <path id="map_marker_alt" data-name="map marker alt" d="M7.311,21.338Q6.291,19.85,4.994,17.98T3.145,15.345q-.553-.765-1.275-1.892T.914,11.859Q.68,11.392.4,10.669a5.416,5.416,0,0,1-.34-1.254A10.689,10.689,0,0,1,0,8.161,7.87,7.87,0,0,1,2.38,2.38,7.87,7.87,0,0,1,8.161,0a7.87,7.87,0,0,1,5.781,2.38,7.87,7.87,0,0,1,2.38,5.781,10.689,10.689,0,0,1-.064,1.254,5.416,5.416,0,0,1-.34,1.254q-.276.723-.51,1.19t-.956,1.594q-.723,1.126-1.275,1.892T11.328,17.98q-1.3,1.87-2.317,3.358a.975.975,0,0,1-.85.425A.975.975,0,0,1,7.311,21.338ZM5.738,10.584a3.382,3.382,0,0,0,2.423.978,3.41,3.41,0,0,0,3.4-3.4,3.41,3.41,0,0,0-3.4-3.4,3.41,3.41,0,0,0-3.4,3.4A3.382,3.382,0,0,0,5.738,10.584Zm10.584,8.459" transform="translate(60 415)" fill="#4a4a4a"/>
  </g>
</svg>
